<svg id="Layer_1" data-name="Layer 1" xmlns="http://www.w3.org/2000/svg" viewBox="0 0 124.31 40.23"><defs><style>.cls-1{fill:#00ffce;}.cls-2{fill:#031111;}</style></defs><rect class="cls-1" width="124.31" height="40.23" rx="6.66"/><path class="cls-2" d="M41,12.8a3.38,3.38,0,0,1,3.14-1.92,3,3,0,0,1,2.9,2,9.13,9.13,0,0,1,1.44-1.47,3.29,3.29,0,0,1,5.16,2.76c.07,3.07,0,6.15,0,9.23A.51.51,0,0,1,53,24H51.07c-.59,0-.69-.1-.69-.68V17.18c0-.63,0-1.26,0-1.89,0-.81-.4-1.26-1.05-1.36a1.45,1.45,0,0,0-1.73,1,5.42,5.42,0,0,0-.19,1.5c0,2.25,0,4.49,0,6.74,0,.7-.11.81-.79.81s-1.19,0-1.78,0-.68-.18-.68-.66q0-3.27,0-6.54A12.38,12.38,0,0,0,44,15a1.2,1.2,0,0,0-1.17-1.09,1.25,1.25,0,0,0-1.46.92,8.06,8.06,0,0,0-.28,2c0,2.16,0,4.32,0,6.48,0,.67-.07.74-.73.74H38.47c-.4,0-.59-.16-.59-.58,0-3.89,0-7.79,0-11.68,0-.41.18-.61.58-.61h1.88c.43,0,.62.21.61.63Z"/><path class="cls-2" d="M32.34,22.53l-.53.46a4.57,4.57,0,0,1-4.47,1,3,3,0,0,1-2.2-2.43,4.13,4.13,0,0,1,3.18-5.15,28.22,28.22,0,0,1,3.17-.49c.34,0,.44-.16.41-.47s0-.41,0-.62a1.45,1.45,0,0,0-1.31-1.55,1.81,1.81,0,0,0-2,1.06c-.25.83-.38.8-1.22.7L26,14.87c-.57-.06-.71-.25-.56-.81a4.09,4.09,0,0,1,2.89-3A7.06,7.06,0,0,1,32.53,11a3.28,3.28,0,0,1,2.62,3.22c.08,1.66.07,3.33,0,5A3.34,3.34,0,0,0,36,21.61a.59.59,0,0,1-.1,1,17.44,17.44,0,0,0-1.38,1.2.63.63,0,0,1-1,0ZM32,17.83l-.19-.14a17.06,17.06,0,0,0-1.74.29,2,2,0,0,0-1.62,2,1.73,1.73,0,0,0,.83,1.73,1.65,1.65,0,0,0,1.91-.56,1.87,1.87,0,0,0,.43-.74C31.78,19.53,31.88,18.68,32,17.83Z"/><path class="cls-2" d="M62.91,22.51A4.57,4.57,0,0,1,60,24.11,6.53,6.53,0,0,1,58.18,24a3,3,0,0,1-2.44-2.44A4.12,4.12,0,0,1,59,16.39c1.13-.27,2.3-.4,3.51-.6,0-.28,0-.6,0-.91a1.45,1.45,0,0,0-1.36-1.61,1.86,1.86,0,0,0-2,1.15c-.25.71-.27.72-1,.63l-1.52-.18c-.48,0-.61-.22-.51-.71a3.66,3.66,0,0,1,1.75-2.52,6.52,6.52,0,0,1,5.89-.39,3.13,3.13,0,0,1,2,3.06c0,1.62,0,3.24,0,4.85a3.54,3.54,0,0,0,.78,2.47c.33.37.28.67-.11,1s-1,.81-1.43,1.23a.58.58,0,0,1-.93,0C63.68,23.4,63.31,23,62.91,22.51Zm-.44-4.83c-.63.1-1.22.15-1.78.29a2.1,2.1,0,0,0-1.6,2.66,1.36,1.36,0,0,0,2.07,1,2.64,2.64,0,0,0,.88-.88A5.36,5.36,0,0,0,62.47,17.68Z"/><path class="cls-2" d="M94,13c.11-.19.22-.37.32-.56,1.07-2.1,4.07-1.93,5.19-.59a3.4,3.4,0,0,1,.83,2.15c.07,2.08.08,4.18.11,6.27,0,1,0,2,0,3.06,0,.46-.19.64-.64.64-.62,0-1.25,0-1.88,0s-.71-.09-.72-.71c0-2.36,0-4.73,0-7.09A4.38,4.38,0,0,0,97,14.69a1.26,1.26,0,0,0-2.08-.49A2.35,2.35,0,0,0,94.12,16c-.07,1.83-.07,3.67-.09,5.5,0,.65,0,1.3,0,1.94,0,.39-.17.56-.55.56H91.54c-.62,0-.71-.09-.71-.71V13.93c0-.71,0-1.42,0-2.14,0-.47.18-.69.65-.69h1.79c.41,0,.63.18.62.62s0,.84,0,1.27Z"/><path class="cls-2" d="M89.11,17.71a7.55,7.55,0,0,1-1.5,4.68,4.86,4.86,0,0,1-8.27-1,8.64,8.64,0,0,1,.18-8.06A4.54,4.54,0,0,1,84,10.89a4.75,4.75,0,0,1,4.15,2.69A8.82,8.82,0,0,1,89.11,17.71ZM82.21,15a12.06,12.06,0,0,0,0,4.75c.06.33.14.67.23,1a1.36,1.36,0,0,0,1.87.92,1.72,1.72,0,0,0,1-1.25,12.34,12.34,0,0,0,0-5.7,1.49,1.49,0,0,0-1.42-1.36,1.45,1.45,0,0,0-1.62,1.18C82.27,14.68,82.24,14.84,82.21,15Z"/><path class="cls-2" d="M55.85,33.52a29.55,29.55,0,0,1-18.08-6.05c-.58-.45-1.15-.9-1.7-1.39-.13-.11-.15-.36-.22-.55a2,2,0,0,1,.55.07c1.58.75,3.13,1.57,4.73,2.26a36.94,36.94,0,0,0,6.52,2,39.38,39.38,0,0,0,9.25.88,36.85,36.85,0,0,0,7-.81,37.49,37.49,0,0,0,7-2.14,1,1,0,0,1,.48-.12c.2,0,.54.13.54.22a.83.83,0,0,1-.2.65c-1.16.73-2.32,1.48-3.54,2.11a21.79,21.79,0,0,1-5.46,1.93c-1.69.36-3.41.57-5.12.82C56.91,33.49,56.25,33.49,55.85,33.52Z"/><path class="cls-2" d="M73,13.71H69.4c-.7,0-.8-.11-.8-.79,0-.43,0-.85,0-1.28s.19-.55.57-.55h7.44c.36,0,.52.16.55.52a3.69,3.69,0,0,1-.71,2.72C75.18,16,74,17.74,72.85,19.45a2.87,2.87,0,0,0-.17.3l.57,0a8.78,8.78,0,0,1,3.45.79,1,1,0,0,1,.7,1.11c0,.48,0,1,0,1.43s-.26.66-.72.45a8.75,8.75,0,0,0-7.73,0c-.52.25-.75.11-.78-.47V23a5.29,5.29,0,0,1,1.32-4.18C70.71,17.19,71.8,15.48,73,13.71Z"/><path class="cls-2" d="M72.5,31.76c.14-.38.29-.76.42-1.15.3-1,.64-1.93.88-2.92s-.12-1.62-1.29-1.63-2.47.08-3.7.12a1.6,1.6,0,0,1-.42-.1c.09-.13.14-.33.26-.38a25.63,25.63,0,0,1,2.67-.94,7.61,7.61,0,0,1,3.39.06c.67.15.94.44.87,1.1A9.1,9.1,0,0,1,73.66,31a11.32,11.32,0,0,1-.93.9Z"/></svg>