<svg id="Layer_1" data-name="Layer 1" xmlns="http://www.w3.org/2000/svg" viewBox="0 0 124.31 40.23"><defs><style>.cls-1{fill:#00ffce;}.cls-2{fill:#031111;}</style></defs><rect class="cls-1" width="124.31" height="40.23" rx="6.66"/><path class="cls-2" d="M45.34,18.5V16.85c0-3.29,0-6.58,0-9.87,0-.31.07-.43.41-.42.89,0,1.79,0,2.69,0l.38,0V15a5.35,5.35,0,0,1,2.49-1.82c3-1,6-1,8.67.9a7.22,7.22,0,0,1,2.93,5.33,21.44,21.44,0,0,1,0,2.27l.1-.06a5,5,0,0,1,3.14-2.36,15.46,15.46,0,0,1,4.59-.62q2.1,0,4.2,0c.27,0,.34-.07.35-.34.13-2.32-1.5-3.23-3.2-3.48a6.15,6.15,0,0,0-2.86.2,2.67,2.67,0,0,0-1.91,1.83.32.32,0,0,1-.22.18H63.8s0,0-.09-.05a3.16,3.16,0,0,1,.39-1.43,4.64,4.64,0,0,1,2.69-2.31,12.76,12.76,0,0,1,8.64-.09,6,6,0,0,1,2.11,1.34l-.71-1.37.35,0h3.33a.46.46,0,0,1,.49.3q2.7,5.45,5.42,10.87c0,.1.11.19.19.34.23-.44.43-.82.62-1.21q2.47-5,5-10a.47.47,0,0,1,.51-.32H96l-.14.33-7.14,14-3.06,6c-.05.11-.18.24-.28.24-1.19,0-2.39,0-3.66,0,.07-.15.11-.25.17-.35.89-1.71,1.8-3.42,2.69-5.13a.59.59,0,0,0,0-.45q-3-5.62-6-11.23c0-.05-.06-.1-.06-.09.38,3.07.1,6.21.19,9.34,0,.72.06,1.45.1,2.19a.58.58,0,0,1-.16.05c-.92,0-1.84,0-2.76,0-.21,0-.27-.09-.27-.28,0-.58,0-1.16-.08-1.81l-.35.39a6.92,6.92,0,0,1-3.74,2,10,10,0,0,1-5.61-.24,4.61,4.61,0,0,1-3.29-4.45c0-.05,0-.11,0-.24-.07.12-.11.17-.14.23A7.35,7.35,0,0,1,56,28.48a9,9,0,0,1-5.17-.86A5.72,5.72,0,0,1,49,26.21a.91.91,0,0,1-.09-.17l-.1.05L48.66,28H45.33V26.23c0-1.51,0-3,0-4.51,0-.2,0-.32-.26-.32H32l-.2,0A9.65,9.65,0,0,0,32,22.52,4.68,4.68,0,0,0,36,26.18a5.65,5.65,0,0,0,3.9-.67,3.87,3.87,0,0,0,1.43-1.57.43.43,0,0,1,.29-.24c1.07,0,2.14,0,3.2,0l.19,0a12.7,12.7,0,0,1-.5,1.31A5.8,5.8,0,0,1,40.78,28a12.84,12.84,0,0,1-8.08-.25,6.15,6.15,0,0,1-4-4.46,10.44,10.44,0,0,1,.18-6,6.12,6.12,0,0,1,3.7-3.95A11.52,11.52,0,0,1,41,13.17a6.49,6.49,0,0,1,4.18,4.94c0,.1.05.2.07.3l0,.09Zm3.45,2.32a11.63,11.63,0,0,0,.29,1.58,4.82,4.82,0,0,0,3.82,3.66,5,5,0,0,0,5.27-1.83,6.08,6.08,0,0,0,1-5.53,5.26,5.26,0,0,0-8.47-2.64A5.94,5.94,0,0,0,48.79,20.82Zm26.44.06-.15,0c-1.72.05-3.44.08-5.15.17a6,6,0,0,0-2.56.63,2,2,0,0,0-1.17,2.15A2.41,2.41,0,0,0,68,26,6.34,6.34,0,0,0,73,25.59,4.39,4.39,0,0,0,75.23,20.88Zm-43.3-1.79h9.81A4,4,0,0,0,40,15.62a5.72,5.72,0,0,0-6.85.62A3.81,3.81,0,0,0,31.93,19.09Z"/></svg>