<svg id="Layer_1" data-name="Layer 1" xmlns="http://www.w3.org/2000/svg" viewBox="0 0 151.3 64.27">
    <defs>
        <style>.cls-gtrLogo-1{fill:#fff;}.cls-gtrLogo-2{fill:#00ffce;}</style>
    </defs>
    <path class="cls-gtrLogo-1"
        d="M46.1,42.12h7.17v9.3H40.78V14.79l-.12-1.89h7.6v6.76H58V9.18h6.29V6.43a6.2,6.2,0,0,0-1.89-4.51A6.16,6.16,0,0,0,57.85,0H0L24.72,12.9V51.47L0,64.27H66v-35H46.1Z" />
    <path class="cls-gtrLogo-1"
        d="M130.74,32l-6.7-6.4,6.7-6.4V9.09L151.3,0H96.23a5.07,5.07,0,0,0-5.07,5.06V9.18h5.29V28.9H89.13V64.27h18.1V32h7.45v32.3H151.3l-20.56-9Zm-16-12.8h-7.47V12.83h7.44v.93h0Z" />
    <polygon class="cls-gtrLogo-2"
        points="92.49 24.86 92.49 13.75 62.67 13.75 62.67 24.86 73.29 24.86 73.29 34.28 70.18 34.28 70.18 41.46 77.59 39.13 85.01 41.46 85.01 34.28 81.84 34.28 81.84 24.86 92.49 24.86" />
</svg>