<svg id="Layer_1" data-name="Layer 1" xmlns="http://www.w3.org/2000/svg" viewBox="0 0 47.91 42.86">
    <defs>
        <style>.cls-guitar-1{fill:#006652;}.cls-guitar-2{fill:#00ffce;}</style>
    </defs>
    <polygon class="cls-guitar-1" points="35.35 5 18.15 21.33 21.54 24.72 37.87 7.52 35.35 5" />
    <path class="cls-guitar-2"
        d="M37.84,7.49l9.7-6.43C48.1.69,48-.06,47.41,0a40.82,40.82,0,0,0-4.17.8c-2,.48-4.33.84-5.74,1.35h0a2.66,2.66,0,0,0-1.18,1.12L35.37,5Z" />
    <polygon class="cls-guitar-2"
        points="21.91 25.07 17.79 20.95 19.97 4.56 9.08 22.06 0 24.52 0.1 24.63 0 24.63 0 42.87 18.34 42.87 21.51 32.79 36.06 25.15 21.91 25.07" />
    <path class="cls-guitar-1"
        d="M19.44,26.75,16,23.25a2,2,0,0,0-2.71,0,1.9,1.9,0,0,0-.56,1.35A1.94,1.94,0,0,0,13.24,26l3.5,3.49a1.87,1.87,0,0,0,1.35.57,1.9,1.9,0,0,0,1.35-.56A1.94,1.94,0,0,0,20,28.1,1.9,1.9,0,0,0,19.44,26.75Z" />
    <path class="cls-guitar-1" d="M10.59,27.63a2.12,2.12,0,1,0-3,3l4.47,4.47a2.12,2.12,0,1,0,3-3Z" />
</svg>