<svg id="Layer_1" data-name="Layer 1" xmlns="http://www.w3.org/2000/svg" viewBox="0 0 100 100"><defs><style>.cls-1{fill:currentColor;}.cls-2{fill:#fff;}</style></defs><path class="cls-1" d="M52.51,49.5c-.37.58-.76,1.15-1.14,1.71A2.2,2.2,0,0,1,51,51a3.8,3.8,0,0,1-.47-.42A51.14,51.14,0,0,0,41.23,43a6.29,6.29,0,0,0-3.77-1.14c-2.91.11-5.83.05-8.74.06-2.16,0-2.09,0-2.7,2.12a1.34,1.34,0,0,0,.64,1.73c1.73,1.29,3.45,2.61,5.09,4A72.88,72.88,0,0,1,49.89,74.15c.59,1.23,1.2,2.45,2,4l1-2,.84-1.63c.13-.23.25-.47.37-.7.28-.52.55-1,.83-1.55s.68-1.29,1-1.92.63-1.16,1-1.73l.22-.41c.31-.54.61-1.09.91-1.63l0-.08,1-1.81a1.59,1.59,0,0,0,.13-.22c.32-.54.63-1.09,1-1.64a.56.56,0,0,0,0-.08c.36-.62.73-1.24,1.1-1.86q1.16-2,2.34-3.87l1-1.57c.31-.5.61-1,.93-1.47.12-.21.26-.41.39-.62.36-.56.72-1.13,1.09-1.69s.78-1.21,1.18-1.81l1.2-1.8c.39-.59.79-1.18,1.19-1.76l.08-.12c.39-.57.77-1.13,1.17-1.7s.82-1.18,1.23-1.77L74.33,41l1.26-1.75,1.28-1.75,1.3-1.73,1.13-1.5,1.06-1.38.44-.57.36-.46.81-1c.11-.15.23-.29.35-.44.38-.48.76-1,1.15-1.45s.91-1.13,1.36-1.69q1.38-1.68,2.77-3.35L89,22.21l1.41-1.65c.52-.61,1-1.2,1.57-1.8s1-1.1,1.45-1.64l.12-.15,1.37-1.52.52-.57,1.32-1.45a9,9,0,0,0-1-.13c-3.76,0-7.53-.07-11.29,0h-.34l-.11,0-.14,0-.14,0a3.86,3.86,0,0,0-.54.19l-.1,0a4,4,0,0,0-.58.31l-.12.08-.26.2a1.14,1.14,0,0,0-.11.11C78.14,18.18,74.2,22,70.48,26A159.91,159.91,0,0,0,52.51,49.5Z"/><path class="cls-2" d="M97.48,34.29c-.36.37-.63.62-.86.9-1.67,2.11-3.35,4.22-5,6.35a1.82,1.82,0,0,0-.3,1.17c.17,2.75.53,5.5.57,8.25a37.47,37.47,0,0,1-1.64,10.75,41.3,41.3,0,0,1-14.13,21.2,39.21,39.21,0,0,1-13,7A42.17,42.17,0,0,1,48.41,92a41.2,41.2,0,0,1-19.35-5.6A41.93,41.93,0,0,1,9.29,60.12,40.47,40.47,0,0,1,8.1,47.59a42.45,42.45,0,0,1,2.53-11.85A41.84,41.84,0,0,1,21.2,19.65,40.22,40.22,0,0,1,34.83,11a33,33,0,0,1,10-2.44,60.89,60.89,0,0,1,7-.33,68.81,68.81,0,0,1,7.94,1.19c1.17.21,2.3.66,3.47.91a2,2,0,0,0,1.41-.1C66.85,8.53,69,6.73,71.34,4.77A49.95,49.95,0,1,0,97.48,34.29Z"/></svg>