<svg id="Layer_1" data-name="Layer 1" xmlns="http://www.w3.org/2000/svg" viewBox="0 0 812 100"><defs></defs><path fill="#ffffff" d="M67.58,65.56v-20H100V100H0L38.42,80.1v-60L0,.1H89.92A9.63,9.63,0,0,1,97,3a9.59,9.59,0,0,1,2.92,7V30.63H75V20.1H53.44l10,2.92V80H75V65.56Z"/><path fill="#ffffff" d="M136.62,80,105.8,89.75V10a9.33,9.33,0,0,1,3-7,9.58,9.58,0,0,1,7-2.92h15V62h11.51V0h15a9.79,9.79,0,0,1,7.12,2.92,9.62,9.62,0,0,1,2.93,7v79.8l-25.07-8Z"/><path fill="#ffffff" d="M234.91,30H209.85V20.1H198.34V30.34H206v20h-7.61V62.05h11.51V49.85h25.06v40L204.1,80l-30.82,9.85V10.05a9.69,9.69,0,0,1,3-7,9.57,9.57,0,0,1,7-2.92h41.55A9.79,9.79,0,0,1,232,3a9.59,9.59,0,0,1,2.92,7Z"/><path fill="#ffffff" d="M271.57,80l-30.81,9.75v-36h25.06V62h11.51V49.75H240.76V0h51.59a9.57,9.57,0,0,1,7,2.92,9.62,9.62,0,0,1,2.93,7V26h-25V20H265.82v9.85H302.3v59.9l-25-8Z"/><path fill="#ffffff" d="M339,80l-30.81,9.75v-36H333.2V62h11.51V49.75H308.14V0h51.59a9.57,9.57,0,0,1,7,2.92,9.62,9.62,0,0,1,2.93,7V26h-25V20H333.2v9.85h36.48v59.9l-25-8Z"/><path fill="#00ffce" d="M405.44,31.66h-3.21V38.3H388.94V21h46.35V38.3H422V31.66h-3.26V53h4.93V64.12l-11.53-3.64-11.52,3.64V53h4.82Z"/><path fill="#00ffce" d="M451.75,52.33V63.6L438.4,67.85V26.36A5.11,5.11,0,0,1,440,22.62a5.3,5.3,0,0,1,3.79-1.56h8V41.73h6.12V21.06h8a5.22,5.22,0,0,1,3.79,1.56,5.1,5.1,0,0,1,1.55,3.74V67.85L457.87,63.6V52.33Z"/><path fill="#00ffce" d="M507.13,37H493.79V31.71h-6.12v5.45h4.05V47.81h-4.05V54h6.12V47.55h13.34V68.84l-16.4-5.24-16.41,5.24V26.36a5.19,5.19,0,0,1,1.61-3.74,5.11,5.11,0,0,1,3.74-1.56h22.12a5.22,5.22,0,0,1,3.79,1.56,5.14,5.14,0,0,1,1.55,3.74Z"/><path fill="#ffffff" d="M551.29,49.75v32l-25,8V0h51.5a9.66,9.66,0,0,1,7.12,2.92,9.65,9.65,0,0,1,2.92,7v19.9L577.43,39.8l10.43,10v40l-25-8v-32Zm11.61-19.9V20H551.29v9.85Z"/><path fill="#ffffff" d="M602.87,20.1H593.7V.1H637v20h-9.16v40h9.26v21l-21.65-6.83L593.7,81.07v-21h9.17Z"/><path fill="#ffffff" d="M700.82,30h-25V20.1H668V36.58h7.61v20H668V81.85l-25.06,8V10.05a9.59,9.59,0,0,1,2.92-7A9.79,9.79,0,0,1,653,.1h37.89a9.57,9.57,0,0,1,7,2.92,9.59,9.59,0,0,1,2.92,7Z"/><path fill="#ffffff" d="M812,.1H714.24a7,7,0,0,0-7,7v73L668.63,100h63.51V59.49h21.5v-20h-21.5V23l-9.95-3h32.92V30.65h25V16.73Z"/></svg>