<svg id="Layer_1" data-name="Layer 1" xmlns="http://www.w3.org/2000/svg" viewBox="0 0 144.5 15.53">
    <defs>
        <style>.cls-madeBy-1{fill:#00ffce;}</style>
    </defs>
    <path class="cls-madeBy-1"
        d="M141.56.17H136.9l-2.6,2.6,4.93,4.94,4.93-4.94Zm-5.62,2.6,1.44-1.44h3.7l1.44,1.44-3.29,3.3h0Z" />
    <polygon class="cls-madeBy-1" points="141.46 2.77 139.32 4.91 139.32 2.49 141.17 2.49 141.46 2.77" />
    <path class="cls-madeBy-1"
        d="M81,.86h3.88a3.67,3.67,0,0,1,2.49.87,3.91,3.91,0,0,1,.81,1.07,5.58,5.58,0,0,1,.51,1.42A9.1,9.1,0,0,1,88.85,6v4.08a8.92,8.92,0,0,1-.16,1.8,5.57,5.57,0,0,1-.51,1.41,3.86,3.86,0,0,1-.81,1.06,3.42,3.42,0,0,1-1.11.65,4,4,0,0,1-1.38.23H81Zm2.84,11.72h.4c1.18,0,1.78-.83,1.78-2.49V6c0-1.66-.6-2.49-1.78-2.49h-.4Z" />
    <path class="cls-madeBy-1"
        d="M89.8,2.42a1.51,1.51,0,0,1,.29-.93,1,1,0,0,1,.32-.34,1.23,1.23,0,0,1,.41-.21,1.61,1.61,0,0,1,.49-.07,1.49,1.49,0,0,1,.47.07,1.23,1.23,0,0,1,.43.21,1.45,1.45,0,0,1,.54.76,2.09,2.09,0,0,1,.07.51,1.61,1.61,0,0,1-.42,1.12A1.42,1.42,0,0,1,91.31,4a1.4,1.4,0,0,1-.9-.3,1.66,1.66,0,0,1-.32-.33,1.79,1.79,0,0,1-.22-.46A1.57,1.57,0,0,1,89.8,2.42Zm.14,12.82V4.72h2.72V15.24Z" />
    <path class="cls-madeBy-1"
        d="M96.11,4.72,97,10.14a4.84,4.84,0,0,1,.09.62c0,.23,0,.45.07.67s0,.43,0,.66,0,.47,0,.71v.63h.19c0-.2,0-.42,0-.66s0-.46,0-.65,0-.4.08-.68.06-.5.08-.69l0-.31a2.68,2.68,0,0,1,0-.3l.84-5.42h2.66l-2,10.52H95.42l-2-10.52Z" />
    <path class="cls-madeBy-1"
        d="M111.39,10v.88H104a2.55,2.55,0,0,0,.24.67,2.3,2.3,0,0,0,.37.52,2,2,0,0,0,.48.4,1.82,1.82,0,0,0,.62.24,1.59,1.59,0,0,0,.33.08l.37,0a2.78,2.78,0,0,0,1.06-.19,2,2,0,0,0,.79-.55.83.83,0,0,0,.13-.18l.11-.19h2.77a4.64,4.64,0,0,1-.5,1.3,4.4,4.4,0,0,1-.72.93,4.76,4.76,0,0,1-1,.79,5.13,5.13,0,0,1-1.25.51,6.63,6.63,0,0,1-.67.13,5.81,5.81,0,0,1-.72,0,4.93,4.93,0,0,1-1.68-.27,4.86,4.86,0,0,1-1.35-.73,5.08,5.08,0,0,1-1.78-2.65,6.29,6.29,0,0,1-.24-1.76,6,6,0,0,1,.26-1.75,4.83,4.83,0,0,1,.71-1.48,4.83,4.83,0,0,1,2.5-1.86,5.12,5.12,0,0,1,1.61-.26,4.89,4.89,0,0,1,3,1,5.83,5.83,0,0,1,1.06,1.16,4.93,4.93,0,0,1,.7,1.48A5.78,5.78,0,0,1,111.39,10ZM104.09,9h4.63a2.73,2.73,0,0,0-.65-1.1,2.55,2.55,0,0,0-1-.62,1.8,1.8,0,0,0-.32-.06,1.66,1.66,0,0,0-.32,0,2.26,2.26,0,0,0-1.62.67,2.11,2.11,0,0,0-.4.54A4,4,0,0,0,104.09,9Z" />
    <path class="cls-madeBy-1" d="M115,15.24H112.3V.74H115Z" />
    <path class="cls-madeBy-1"
        d="M121.24,15.36a5.39,5.39,0,0,1-1.72-.28,5.25,5.25,0,0,1-1.42-.77A5.14,5.14,0,0,1,117,13.17a4.83,4.83,0,0,1-.77-1.52,5.42,5.42,0,0,1,0-3.38,5.43,5.43,0,0,1,.75-1.48,5.41,5.41,0,0,1,2.61-1.91,4.46,4.46,0,0,1,.82-.2,4.94,4.94,0,0,1,.87-.08,5.27,5.27,0,0,1,1.67.28,5.16,5.16,0,0,1,2.61,1.9,5.15,5.15,0,0,1,.77,1.49,5.44,5.44,0,0,1,.19.82,4.91,4.91,0,0,1,.08.86,5.94,5.94,0,0,1-.23,1.55,5,5,0,0,1-.8,1.65,5.15,5.15,0,0,1-1.16,1.17,5.43,5.43,0,0,1-1.45.76,5.8,5.8,0,0,1-.82.21A6.11,6.11,0,0,1,121.24,15.36Zm0-2.6a2.54,2.54,0,0,0,.81-.13,2,2,0,0,0,.71-.4,2.66,2.66,0,0,0,.63-.68,2.9,2.9,0,0,0,.31-.69,2.72,2.72,0,0,0,.09-.43,2.22,2.22,0,0,0,0-.45,3.24,3.24,0,0,0-.13-.89,2.82,2.82,0,0,0-.37-.76,3,3,0,0,0-.52-.57,2.43,2.43,0,0,0-.76-.43,2.75,2.75,0,0,0-.81-.13,2.44,2.44,0,0,0-1.53.52,2.73,2.73,0,0,0-.57.6,2.76,2.76,0,0,0-.38.77,2.72,2.72,0,0,0-.09.43,2.38,2.38,0,0,0,0,.46,3.34,3.34,0,0,0,.11.8,2.68,2.68,0,0,0,.4.84,2.58,2.58,0,0,0,.54.6,2.5,2.5,0,0,0,.74.4A2.57,2.57,0,0,0,121.25,12.76Z" />
    <path class="cls-madeBy-1"
        d="M128.85,4.72l1,2.51s0,.1.06.15a.44.44,0,0,1,0,.15c0,.09,0,.14,0,.14a0,0,0,0,1,0,0l0,.18V8h.2V7.87s0-.1,0-.17a2,2,0,0,1,.08-.33.19.19,0,0,1,0-.07l0-.07,1-2.51h2.84L131.67,10l2.51,5.26h-2.84l-1.05-2.53a.64.64,0,0,0,0-.1.72.72,0,0,1-.07-.21.76.76,0,0,1,0-.16l0-.17a.19.19,0,0,1,0-.08v-.08h-.19c0,.08,0,.13,0,.17a1.15,1.15,0,0,1,0,.16,1.35,1.35,0,0,0,0,.18,1.24,1.24,0,0,1,0,.16l0,.07,0,.07-.92,2.52H126L128.47,10,126,4.72Z" />
    <path class="cls-madeBy-1"
        d="M.34,11.29v-5h.93V6.6a3,3,0,0,1,.4-.2,3.82,3.82,0,0,1,.51-.18,1.91,1.91,0,0,1,.52-.07,2.25,2.25,0,0,1,.8.12A1.1,1.1,0,0,1,4,6.66c.13-.07.29-.15.48-.23a3.47,3.47,0,0,1,.62-.2,2.41,2.41,0,0,1,.65-.08,2.32,2.32,0,0,1,.86.13,1.14,1.14,0,0,1,.53.44,1.89,1.89,0,0,1,.26.76,7.39,7.39,0,0,1,.08,1.15v2.66H6.54V8.69a5.24,5.24,0,0,0-.07-1,.92.92,0,0,0-.27-.55A1,1,0,0,0,5.57,7a2.81,2.81,0,0,0-.49,0c-.16,0-.32.08-.46.13l-.34.15a3.09,3.09,0,0,1,.1.62c0,.25,0,.51,0,.77v2.59H3.47V8.72a6.57,6.57,0,0,0-.07-1,.88.88,0,0,0-.28-.55A1,1,0,0,0,2.5,7,2.59,2.59,0,0,0,2,7a3.68,3.68,0,0,0-.43.13l-.33.15v4Z" />
    <path class="cls-madeBy-1"
        d="M9.93,11.39A1.43,1.43,0,0,1,8.85,11a1.63,1.63,0,0,1-.37-1.16A1.67,1.67,0,0,1,8.66,9a1.15,1.15,0,0,1,.54-.48,2.4,2.4,0,0,1,.89-.19l1.45-.14V7.81a.88.88,0,0,0-.21-.67.9.9,0,0,0-.63-.2l-.61,0-.7,0-.61.06,0-.68a5.07,5.07,0,0,1,.6-.11c.23,0,.47-.07.73-.09a5.8,5.8,0,0,1,.7,0,2.33,2.33,0,0,1,1,.17,1.11,1.11,0,0,1,.56.53,2.1,2.1,0,0,1,.18.94v2.47a.36.36,0,0,0,.17.3.9.9,0,0,0,.36.12l0,.7h-.28l-.26,0-.23,0a1.26,1.26,0,0,1-.29-.12L11.7,11c-.13.05-.28.11-.48.17a5.12,5.12,0,0,1-.62.15A3.71,3.71,0,0,1,9.93,11.39Zm.2-.75a2.26,2.26,0,0,0,.51-.05l.51-.11.39-.12V8.85L10.21,9a.84.84,0,0,0-.61.24.89.89,0,0,0-.18.59.92.92,0,0,0,.18.61A.61.61,0,0,0,10.13,10.64Z" />
    <path class="cls-madeBy-1"
        d="M15.51,11.39a2.35,2.35,0,0,1-.6-.07,1.54,1.54,0,0,1-.5-.24,1.4,1.4,0,0,1-.4-.46,2.49,2.49,0,0,1-.25-.73,6.67,6.67,0,0,1-.08-1.09,4.4,4.4,0,0,1,.21-1.47,1.7,1.7,0,0,1,.67-.89,2.35,2.35,0,0,1,1.24-.29,2.89,2.89,0,0,1,.4,0l.43,0,.34,0V4.1h.94v7.19H17V11a3.88,3.88,0,0,1-.4.19,2.74,2.74,0,0,1-.53.16A2.11,2.11,0,0,1,15.51,11.39Zm.17-.82a2,2,0,0,0,.48-.05,3.09,3.09,0,0,0,.46-.14l.35-.14V7.05l-.31,0-.4,0-.38,0a1.16,1.16,0,0,0-.74.21,1.12,1.12,0,0,0-.39.63,3.63,3.63,0,0,0-.12,1,4.37,4.37,0,0,0,.08.91,1.45,1.45,0,0,0,.23.53.7.7,0,0,0,.34.26A1.05,1.05,0,0,0,15.68,10.57Z" />
    <path class="cls-madeBy-1"
        d="M21.11,11.39a2.27,2.27,0,0,1-1.22-.29,1.59,1.59,0,0,1-.65-.86A4.5,4.5,0,0,1,19,8.8a3.68,3.68,0,0,1,.27-1.53,1.74,1.74,0,0,1,.75-.85,2.3,2.3,0,0,1,1.15-.27,2.05,2.05,0,0,1,1.57.56A2.55,2.55,0,0,1,23.3,8.5l-.05.64H20a1.85,1.85,0,0,0,.27,1.09,1.09,1.09,0,0,0,.94.36h.64l.69,0,.58,0,0,.71-.6.08c-.23,0-.48.06-.73.07ZM20,8.44h2.37a1.92,1.92,0,0,0-.28-1.2,1.09,1.09,0,0,0-.88-.34,1.34,1.34,0,0,0-.66.15,1,1,0,0,0-.41.49A2.3,2.3,0,0,0,20,8.44Z" />
    <path class="cls-madeBy-1"
        d="M26.59,13.48V6.25h.94V6.6l.39-.2a3.52,3.52,0,0,1,.52-.18,2.13,2.13,0,0,1,1.58.2,1.58,1.58,0,0,1,.6.84,4.59,4.59,0,0,1,.2,1.46,4.53,4.53,0,0,1-.23,1.57,1.53,1.53,0,0,1-.71.84,2.74,2.74,0,0,1-1.26.26,4.17,4.17,0,0,1-.61,0l-.48-.07v2.2Zm1.94-2.9a1.46,1.46,0,0,0,.8-.19,1,1,0,0,0,.41-.6,4,4,0,0,0,.12-1.08,2.38,2.38,0,0,0-.28-1.35A.92.92,0,0,0,28.79,7a1.88,1.88,0,0,0-.46.06,3,3,0,0,0-.45.13,1.65,1.65,0,0,0-.35.16v3.17l.44.06Z" />
    <path class="cls-madeBy-1"
        d="M34,11.39a2.62,2.62,0,0,1-1.33-.29,1.53,1.53,0,0,1-.68-.88,4.6,4.6,0,0,1-.2-1.51A4.21,4.21,0,0,1,32,7.27a1.64,1.64,0,0,1,.71-.84A2.52,2.52,0,0,1,34,6.15a2.58,2.58,0,0,1,1.3.28,1.67,1.67,0,0,1,.7.84,4.21,4.21,0,0,1,.21,1.44A4.92,4.92,0,0,1,36,10.22a1.57,1.57,0,0,1-.68.88A2.67,2.67,0,0,1,34,11.39Zm0-.8a1.37,1.37,0,0,0,.8-.19.94.94,0,0,0,.37-.61,5.18,5.18,0,0,0,.09-1.08,4.13,4.13,0,0,0-.11-1,1,1,0,0,0-.39-.56A1.45,1.45,0,0,0,34,6.94a1.48,1.48,0,0,0-.76.17.94.94,0,0,0-.39.56,4.13,4.13,0,0,0-.11,1,5.18,5.18,0,0,0,.09,1.08.93.93,0,0,0,.36.61A1.38,1.38,0,0,0,34,10.59Z" />
    <path class="cls-madeBy-1"
        d="M39,11.39l-.6,0-.66-.08-.57-.09,0-.76.57.07.63.07a4.72,4.72,0,0,0,.49,0,2.28,2.28,0,0,0,.63-.07.63.63,0,0,0,.38-.23A.72.72,0,0,0,40,9.83a.57.57,0,0,0-.11-.36.78.78,0,0,0-.37-.21,4.87,4.87,0,0,0-.79-.16,6.16,6.16,0,0,1-.94-.23,1,1,0,0,1-.55-.42,1.45,1.45,0,0,1-.18-.78,1.3,1.3,0,0,1,1-1.38,2.65,2.65,0,0,1,.9-.14l.65,0,.67.08.55.09,0,.76L40.2,7,39.55,7,39,7a2,2,0,0,0-.51.06.64.64,0,0,0-.35.2.6.6,0,0,0-.13.42.53.53,0,0,0,.09.32.66.66,0,0,0,.37.2,4.84,4.84,0,0,0,.77.17,5,5,0,0,1,1,.25,1.09,1.09,0,0,1,.54.44,1.49,1.49,0,0,1,.17.77,1.64,1.64,0,0,1-.24.94,1.23,1.23,0,0,1-.68.51A3.32,3.32,0,0,1,39,11.39Z" />
    <path class="cls-madeBy-1"
        d="M43.66,11.39l-.6,0-.67-.08-.56-.09,0-.76.57.07.63.07a4.72,4.72,0,0,0,.49,0,2.28,2.28,0,0,0,.63-.07.67.67,0,0,0,.38-.23.72.72,0,0,0,.13-.46.57.57,0,0,0-.1-.36.78.78,0,0,0-.37-.21,5.11,5.11,0,0,0-.79-.16,6.16,6.16,0,0,1-.94-.23A1,1,0,0,1,42,8.45a1.45,1.45,0,0,1-.18-.78A1.37,1.37,0,0,1,42,6.76a1.43,1.43,0,0,1,.7-.47,2.65,2.65,0,0,1,.9-.14l.65,0,.66.08.56.09,0,.76L44.9,7c-.21,0-.42,0-.64-.06L43.7,7a2,2,0,0,0-.51.06.64.64,0,0,0-.35.2.6.6,0,0,0-.13.42A.53.53,0,0,0,42.8,8a.67.67,0,0,0,.36.2,4.75,4.75,0,0,0,.78.17,4.86,4.86,0,0,1,1,.25,1.12,1.12,0,0,1,.55.44,1.49,1.49,0,0,1,.17.77,1.64,1.64,0,0,1-.24.94,1.26,1.26,0,0,1-.68.51A3.32,3.32,0,0,1,43.66,11.39Z" />
    <path class="cls-madeBy-1" d="M46.73,5.23v-1h.93v1Zm0,6.06v-5h.93v5Z" />
    <path class="cls-madeBy-1"
        d="M50.79,11.39l-.55,0c-.22,0-.44,0-.65,0L49,11.27V4.1h.94V6.47a3.6,3.6,0,0,1,.4-.14,5.16,5.16,0,0,1,.5-.13,3.14,3.14,0,0,1,.51,0,2.08,2.08,0,0,1,1.1.26,1.53,1.53,0,0,1,.59.83,5.23,5.23,0,0,1,.17,1.45,4.66,4.66,0,0,1-.22,1.6,1.47,1.47,0,0,1-.74.84A3.41,3.41,0,0,1,50.79,11.39Zm0-.82a1.65,1.65,0,0,0,.93-.2,1,1,0,0,0,.43-.62,4.36,4.36,0,0,0,.11-1.06,3.82,3.82,0,0,0-.1-1,1,1,0,0,0-.32-.55A1,1,0,0,0,51.2,7a3.73,3.73,0,0,0-.46,0l-.45.1-.35.12v3.29l.45,0Z" />
    <path class="cls-madeBy-1" d="M54.41,11.29V4.1h.93v7.19Z" />
    <path class="cls-madeBy-1"
        d="M58.6,11.39a2.28,2.28,0,0,1-1.23-.29,1.69,1.69,0,0,1-.65-.86,4.5,4.5,0,0,1-.2-1.44,3.68,3.68,0,0,1,.27-1.53,1.85,1.85,0,0,1,.75-.85,2.34,2.34,0,0,1,1.16-.27,2,2,0,0,1,1.56.56,2.55,2.55,0,0,1,.53,1.79l0,.64H57.48a2,2,0,0,0,.27,1.09,1.11,1.11,0,0,0,1,.36h.64l.68,0,.59,0,0,.71-.61.08c-.23,0-.47.06-.72.07Zm-1.12-3h2.37a2,2,0,0,0-.27-1.2,1.1,1.1,0,0,0-.88-.34,1.38,1.38,0,0,0-.67.15,1,1,0,0,0-.41.49A2.5,2.5,0,0,0,57.48,8.44Z" />
    <path class="cls-madeBy-1"
        d="M65.86,11.39l-.55,0c-.22,0-.43,0-.65,0l-.59-.05V4.1H65V6.47a3.6,3.6,0,0,1,.4-.14,5.16,5.16,0,0,1,.5-.13,3.14,3.14,0,0,1,.51,0,2.08,2.08,0,0,1,1.1.26,1.53,1.53,0,0,1,.59.83,4.88,4.88,0,0,1,.17,1.45,4.66,4.66,0,0,1-.22,1.6,1.44,1.44,0,0,1-.74.84A3.41,3.41,0,0,1,65.86,11.39Zm0-.82a1.65,1.65,0,0,0,.93-.2,1,1,0,0,0,.43-.62,4.36,4.36,0,0,0,.11-1.06,3.82,3.82,0,0,0-.1-1,1,1,0,0,0-.32-.55A1,1,0,0,0,66.27,7a3.73,3.73,0,0,0-.46,0l-.45.1L65,7.23v3.29l.45,0Z" />
    <path class="cls-madeBy-1"
        d="M70.46,13.48l.64-2.19h-.83l-1.37-5h.95L71,10.48h.32l1.15-4.23h.94l-2,7.23Z" />
</svg>