<?xml version="1.0" encoding="utf-8"?>
<svg data-name="Layer 1" id="Layer_1" viewBox="0 0 58.18 42.33" xmlns="http://www.w3.org/2000/svg">

<path d="M23.83,12.6,16.16,7.8C12.5,5.5,8.88,3.13,5.16.93A5.27,5.27,0,0,0,2,.21C1.29.31.59,1.34.24,2.12A6,6,0,0,0,0,4.54Q0,20.73,0,36.9a22.77,22.77,0,0,0,.11,2.62C.41,42,2.1,43,4.3,41.87c1.8-.92,3.48-2.08,5.19-3.16l14.35-9.06v2.09c0,2.41,0,4.82,0,7.23,0,3,2.05,4.16,4.62,2.72,2-1.12,3.91-2.42,5.85-3.64l21-13.21c.32-.2.65-.4,1-.62,2.57-1.84,2.6-4.38,0-6.13-3.28-2.18-6.64-4.24-10-6.34Q37.91,6.49,29.58,1.25A12.54,12.54,0,0,0,28.16.42c-2.33-1.09-4.22,0-4.3,2.6s0,5,0,7.56Z" fill="#00ffce"/>
</svg>