<?xml version="1.0" encoding="utf-8"?>
<svg data-name="Layer 1" id="Layer_1" viewBox="0 0 58.18 42.33" xmlns="http://www.w3.org/2000/svg">

<path d="M34.35,12.6,42,7.8c3.66-2.3,7.28-4.67,11-6.87a5.29,5.29,0,0,1,3.2-.72c.67.1,1.37,1.13,1.72,1.91a6,6,0,0,1,.23,2.42q0,16.18,0,32.36a22.77,22.77,0,0,1-.11,2.62c-.29,2.47-2,3.47-4.18,2.35-1.8-.92-3.47-2.08-5.19-3.16L34.34,29.65v2.09c0,2.41,0,4.82,0,7.23,0,3-2.05,4.16-4.62,2.72-2-1.12-3.9-2.42-5.85-3.64l-21-13.21c-.32-.2-.65-.4-1-.62-2.56-1.84-2.6-4.38,0-6.13,3.28-2.18,6.64-4.24,10-6.34Q20.27,6.49,28.6,1.25A14.58,14.58,0,0,1,30,.42c2.33-1.09,4.22,0,4.3,2.6s0,5,0,7.56Z" fill="#00ffce"/>
</svg>