<svg id="Layer_1" data-name="Layer 1" xmlns="http://www.w3.org/2000/svg" viewBox="0 0 100 100">
    <defs>
        <style>.cls-skull-1{fill:#fff;}</style>
    </defs>
    <path class="cls-skull-1"
        d="M96.87,32.33a33.5,33.5,0,0,0-2.63-6.42h0c-.2-.44-.42-.89-.63-1.31l-.22-.41c-.09-.18-.18-.36-.28-.54s-.16-.33-.25-.48-.27-.46-.41-.69-.34-.59-.52-.88l-.09-.16c-.17-.28-.36-.55-.53-.83l-.68-1-.07-.11c-.19-.29-.4-.57-.62-.85-.75-1-1.55-2-2.39-2.93-.27-.31-.54-.62-.82-.92-.47-.49-.93-1-1.43-1.43l0,0L85,13.13l0,0-.36-.33c-.38-.36-.77-.71-1.17-1.06l0,0,0,0A42.69,42.69,0,0,0,76.86,7c-.78-.45-1.59-.89-2.41-1.3h0A53.82,53.82,0,0,0,50,0C37,0,25.14,4.3,16.51,11.74v0l-.28.26c-.46.4-.9.79-1.34,1.21a41.76,41.76,0,0,0-6.29,7.56l-.43.66-.31.51c-.24.4-.48.8-.71,1.22l-.23.43c-.13.24-.25.48-.37.72s-.11.2-.16.31c-.16.32-.32.65-.47,1-.06.11-.12.22-.17.33h0s-.29.51-.74,1.46a.3.3,0,0,1,0,.08v0a41.38,41.38,0,0,0-1.91,5.1l0,.05c0,.11-.07.22-.1.33-.17.58-.34,1.19-.5,1.83l-.09.32v0A55.1,55.1,0,0,0,.78,48.26v.07c0,.16,0,.33,0,.49,0,.64,0,1.29,0,2l0,.67c0,.75.1,1.52.17,2.3l.06.66c.09.86.2,1.75.33,2.65,0,.16.05.33.08.5.15,1,.31,1.94.51,2.94.23,1.16.51,2.24.81,3.29,4,13.82,13.5,18,21.15,18.94l3.41,9.73.11.31a1.42,1.42,0,0,1,.08.18,10.8,10.8,0,0,0,10.12,7H62.31a10.83,10.83,0,0,0,3.32-.52,1.45,1.45,0,0,1,.22-.09,12.28,12.28,0,0,0,1.3-.54,10.77,10.77,0,0,0,5.36-6.08l3.53-10C84.27,81.67,94.68,77,98,60.5A56.86,56.86,0,0,0,96.87,32.33ZM50,70.41s7.64,7,5.31,11.44c-1.64,3.08-5.31,2.46-5.31-2,0,4.42-3.66,5-5.31,2C42.37,77.46,50,70.41,50,70.41Zm36.31-14.7c0,8.12-5.3,14.7-11.86,14.7s-11.86-6.58-11.86-14.7c0-2.39,3.51-7,11.86-11.2C82.55,40.47,86.31,47.6,86.31,55.71Zm-62-11.2c8.36,4.19,11.87,8.81,11.87,11.2,0,8.12-5.31,14.7-11.87,14.7s-11.85-6.58-11.85-14.7S16.23,40.47,24.32,44.51Z" />
</svg>